{"scene":0,"asset":{"generator":"ImageToStl.com","version":"2.0"},"scenes":[{"name":"Scene","nodes":[0]}],"nodes":[{"name":"Node0","children":[1]},{"name":"Node1","mesh":0,"children":[2,3,4]},{"name":"Node2","mesh":1},{"name":"Node3","mesh":2},{"name":"Node4","mesh":3}],"materials":[{"name":"#AAFFFF-1","pbrMetallicRoughness":{"baseColorFactor":[0.6666667,1.0,1.0,1.0],"metallicFactor":0.05,"roughnessFactor":0.5},"doubleSided":true}],"meshes":[{"name":"Mesh0","primitives":[{"indices":1,"material":0,"attributes":{"POSITION":0}}]},{"name":"Mesh0","primitives":[{"indices":3,"material":0,"attributes":{"POSITION":2}}]},{"name":"Mesh0","primitives":[{"indices":5,"material":0,"attributes":{"POSITION":4}}]},{"name":"Mesh0","primitives":[{"indices":7,"material":0,"attributes":{"POSITION":6}}]}],"accessors":[{"bufferView":0,"componentType":5126,"count":2119,"type":"VEC3","min":[-105.83669,-80.523026,0.0],"max":[118.189995,80.523026,63.12844]},{"bufferView":1,"componentType":5123,"count":9384,"type":"SCALAR"},{"bufferView":2,"componentType":5126,"count":4025,"type":"VEC3","min":[-121.56165,-81.56165,0.0],"max":[121.56165,81.56165,79.0]},{"bufferView":3,"componentType":5123,"count":22284,"type":"SCALAR"},{"bufferView":4,"componentType":5126,"count":2658,"type":"VEC3","min":[-132.554,-92.554,0.0],"max":[132.554,92.554,80.0]},{"bufferView":5,"componentType":5123,"count":13248,"type":"SCALAR"},{"bufferView":6,"componentType":5126,"count":11298,"type":"VEC3","min":[-135.554,-95.554,0.0],"max":[135.554,95.554,82.0]},{"bufferView":7,"componentType":5123,"count":66630,"type":"SCALAR"}],"bufferViews":[{"target":34962,"buffer":0,"byteLength":25428,"byteOffset":0},{"target":34963,"buffer":0,"byteLength":18768,"byteOffset":25428},{"target":34962,"buffer":0,"byteLength":48300,"byteOffset":44196},{"target":34963,"buffer":0,"byteLength":44568,"byteOffset":92496},{"target":34962,"buffer":0,"byteLength":31896,"byteOffset":137064},{"target":34963,"buffer":0,"byteLength":26496,"byteOffset":168960},{"target":34962,"buffer":0,"byteLength":135576,"byteOffset":195456},{"target":34963,"buffer":0,"byteLength":133260,"byteOffset":331032}],"buffers":[{"byteLength":464292,"uri":"data:application/octet-stream;base64,"}]}